<?xml version="1.0" encoding="UTF-8" standalone="no"?>
<!-- Created with Inkscape (http://www.inkscape.org/) -->

<svg
   version="1.1"
   id="svg2"
   width="387.10666"
   height="216"
   viewBox="0 0 387.10666 216"
   sodipodi:docname="Logo ETS TypoBlanche D FR.eps"
   xmlns:inkscape="http://www.inkscape.org/namespaces/inkscape"
   xmlns:sodipodi="http://sodipodi.sourceforge.net/DTD/sodipodi-0.dtd"
   xmlns="http://www.w3.org/2000/svg"
   xmlns:svg="http://www.w3.org/2000/svg">
  <defs
     id="defs6">
    <clipPath
       clipPathUnits="userSpaceOnUse"
       id="clipPath20">
      <path
         d="M 88.0313,85.6289 H 1528.03 V 1525.63 H 88.0313 Z"
         id="path18" />
    </clipPath>
    <clipPath
       clipPathUnits="userSpaceOnUse"
       id="clipPath32">
      <path
         d="M 88.0313,85.6289 H 1528.03 V 1525.63 H 88.0313 Z"
         id="path30" />
    </clipPath>
    <clipPath
       clipPathUnits="userSpaceOnUse"
       id="clipPath50">
      <path
         d="m 1333.49,963.215 c 0.58,-10.07 -29.35,-37.039 -146.72,-66.957 C 1087.02,870.836 953.43,850.746 810.617,839.727 779.77,837.355 649.289,828.617 617.93,827.156 l -1.992,-0.101 -0.809,-6.578 v -16.77 l 0.719,0.039 c 30.742,1.399 163.121,10.621 196.179,13.18 101.161,7.801 199.343,20.32 283.933,36.179 34.77,6.512 67.29,13.602 96.65,21.071 108.23,27.601 160.69,56.719 160.27,89.039 z"
         id="path48" />
    </clipPath>
    <clipPath
       clipPathUnits="userSpaceOnUse"
       id="clipPath56">
      <path
         d="M 615.129,963.215 H 1353.3 V 803.707 H 615.129 Z"
         id="path54" />
    </clipPath>
    <linearGradient
       x1="0"
       y1="0"
       x2="1"
       y2="0"
       gradientUnits="userSpaceOnUse"
       gradientTransform="matrix(742.771,0,0,742.771,615.129,883.461)"
       spreadMethod="pad"
       id="linearGradient62">
      <stop
         style="stop-opacity:1;stop-color:#ee293d"
         offset="0"
         id="stop58" />
      <stop
         style="stop-opacity:1;stop-color:#ffffff"
         offset="1"
         id="stop60" />
    </linearGradient>
    <clipPath
       clipPathUnits="userSpaceOnUse"
       id="clipPath72">
      <path
         d="m 263.859,894.137 v -3.582 c 7.071,-29.09 65.692,-54.879 154.168,-66.598 22.422,-3.422 37.602,-4.281 62.731,-5.723 11.402,-0.648 44.172,-1.886 44.172,-1.886 l 0.308,6.968 c 0,0 -38.187,1.61 -49.539,2.079 -15.769,0.703 -27.179,1.179 -46.261,3.921 -100.797,12.45 -154.688,41.731 -158.137,64.821 z"
         id="path70" />
    </clipPath>
    <clipPath
       clipPathUnits="userSpaceOnUse"
       id="clipPath78">
      <path
         d="m 503.152,743.645 -260.929,79.277 43.726,143.918 260.93,-79.277 z"
         id="path76" />
    </clipPath>
    <linearGradient
       x1="0"
       y1="0"
       x2="1"
       y2="0"
       gradientUnits="userSpaceOnUse"
       gradientTransform="matrix(-115.86,35.2009,-35.2009,-115.86,497.406,823.991)"
       spreadMethod="pad"
       id="linearGradient84">
      <stop
         style="stop-opacity:1;stop-color:#ee293d"
         offset="0"
         id="stop80" />
      <stop
         style="stop-opacity:1;stop-color:#ffffff"
         offset="1"
         id="stop82" />
    </linearGradient>
    <clipPath
       clipPathUnits="userSpaceOnUse"
       id="clipPath96">
      <path
         d="M 88.0313,85.6289 H 1528.03 V 1525.63 H 88.0313 Z"
         id="path94" />
    </clipPath>
    <clipPath
       clipPathUnits="userSpaceOnUse"
       id="clipPath128">
      <path
         d="M 88.0313,85.6289 H 1528.03 V 1525.63 H 88.0313 Z"
         id="path126" />
    </clipPath>
  </defs>
  <sodipodi:namedview
     id="namedview4"
     pagecolor="#ffffff"
     bordercolor="#000000"
     borderopacity="0.25"
     inkscape:showpageshadow="2"
     inkscape:pageopacity="0.0"
     inkscape:pagecheckerboard="0"
     inkscape:deskcolor="#d1d1d1" />
  <g
     id="g8"
     inkscape:groupmode="layer"
     inkscape:label="ink_ext_XXXXXX"
     transform="matrix(1.3333333,0,0,-1.3333333,0,216)">
    <g
       id="g10"
       transform="scale(0.1)">
      <path
         d="M 88.0313,85.6289 H 1528.03 V 1525.63 H 88.0313 V 85.6289"
         style="fill:#ee293d;fill-opacity:1;fill-rule:nonzero;stroke:none"
         id="path12" />
      <g
         id="g14">
        <g
           id="g16"
           clip-path="url(#clipPath20)">
          <path
             d="m 1352.82,964.316 c -1.36,29.43 -58.33,50.474 -169.33,62.594 -53.62,5.86 -116.72,8.82 -187.541,8.82 -61.441,0 -127.179,-2.24 -195.359,-6.67 -118.363,-7.68 -239.801,-23.8 -341.981,-45.372 -8.39,-1.762 -16.55,-3.879 -24.441,-5.922 -4.469,-1.161 -8.871,-2.309 -13.23,-3.36 -72.731,-17.59 -159.098,-45.89 -157.481,-80.769 l 7.961,0.422 c -1.051,22.41 55.539,49.648 151.371,72.839 7.367,1.79 14.879,3.231 22.82,4.77 4.93,0.949 9.918,1.91 14.938,2.988 89.73,18.93 207.543,33.504 340.703,42.144 61.27,3.98 121.867,6.01 180.148,6.01 74.512,0 141.872,-3.24 200.182,-9.6 110.84,-12.12 151.14,-33.983 151.89,-50.253 l 19.35,1.359"
             style="fill:#ffffff;fill-opacity:1;fill-rule:nonzero;stroke:none"
             id="path22" />
        </g>
      </g>
      <path
         d="M 677.953,1105.14 H 423.734 L 310.023,649.34 h 256.313 l 17.328,70.859 H 413.063 l 32.761,130.77 h 145.891 l 17.629,70.23 h -146.5 l 28.101,113.071 h 168.731 l 18.277,70.87"
         style="fill:#ffffff;fill-opacity:1;fill-rule:nonzero;stroke:none"
         id="path24" />
      <g
         id="g26">
        <g
           id="g28"
           clip-path="url(#clipPath32)">
          <path
             d="m 652.508,1217.57 v 0 c -10.25,-0.02 -20.192,-5.5 -38.262,-15.47 l -1.539,-0.87 -89.941,-53.85 -12.469,-7.47 14.48,-1.37 19.461,-1.85 0.938,-0.09 0.91,0.28 102.551,31.63 c 11.879,2.95 23.73,6.95 27.23,19.95 1.52,5.5 0.571,11.84 -2.59,17.34 -3.101,5.43 -7.922,9.27 -13.531,10.8 -2.418,0.65 -4.777,0.97 -7.238,0.97"
             style="fill:#ffffff;fill-opacity:1;fill-rule:nonzero;stroke:none"
             id="path34" />
          <path
             d="m 812.379,811.883 c -8.473,-0.66 -24.602,-1.797 -44.102,-3.141 -4.187,-0.277 -8.461,-0.578 -12.91,-0.867 l -26.59,-107.16 h 84.832 l 28.207,113.648 c -9.796,-0.847 -19.578,-1.718 -29.437,-2.48"
             style="fill:#ffffff;fill-opacity:1;fill-rule:nonzero;stroke:none"
             id="path36" />
          <path
             d="m 714.16,1156.51 -17.621,-70.86 h 127.75 l -2.84,-11.48 -57.879,-233.24 c 4.5,0.312 8.789,0.601 12.91,0.89 14.758,1.02 26.809,1.879 33.75,2.41 13.368,1.032 26.629,2.172 39.821,3.372 l 59.066,238.048 h 120.103 l 14.77,59.38 2.86,11.48 H 714.16"
             style="fill:#ffffff;fill-opacity:1;fill-rule:nonzero;stroke:none"
             id="path38" />
          <path
             d="m 1307.45,1158.05 c -41.8,25.12 -81.76,30.39 -107.95,30.39 -43.91,0 -81.45,-14.56 -108.57,-42.11 -24.15,-24.54 -38,-58.38 -38,-92.86 0,-40.26 17.7,-69.048 38.84,-92.068 10.37,-11.281 21.54,-21.199 31.92,-30.351 9.62,-9 19.4,-18.168 27.35,-28.617 2.14,-2.782 4.11,-5.672 5.94,-8.68 0.48,0.109 0.94,0.219 1.41,0.328 9.28,2.148 18.41,4.328 27.18,6.559 20.23,5.16 38.57,10.429 55.12,15.781 -4.5,8.488 -9.73,16.058 -15.26,23.019 -8.14,10.231 -16.96,19.102 -25.11,27.27 l -0.37,0.352 -13.59,12.781 c -7.3,6.25 -14.72,12.886 -21.49,20.027 -15.02,15.789 -26.8,34.049 -26.8,56.119 0,30.79 23.38,63.49 66.73,63.49 16,0 47.76,-4.6 80.52,-35.37 l 5.93,-5.57 1.97,7.9 15.99,64.74 0.42,1.64 0.85,3.43 -3.03,1.8"
             style="fill:#ffffff;fill-opacity:1;fill-rule:nonzero;stroke:none"
             id="path40" />
          <path
             d="m 1251.91,886.098 c -17.3,-5.711 -36.6,-11.34 -58.12,-16.828 -6.17,-1.563 -12.52,-3.102 -18.96,-4.633 -2.35,-0.559 -4.68,-1.129 -7.06,-1.68 0.36,-2.988 0.61,-6.019 0.61,-9.23 0,-36.637 -23.35,-73.61 -75.51,-73.61 -35.09,0 -68.28,14.86 -98.636,44.18 l -5.949,5.73 -2,-8.031 -17.57,-70.769 -0.852,-3.36 2.953,-1.84 c 2.68,-1.668 5.379,-3.257 8.11,-4.8 35.364,-20.11 75.964,-30.7 118.054,-30.7 103.91,0 158.29,72.993 158.29,145.102 0,11.117 -1.23,21.211 -3.36,30.469"
             style="fill:#ffffff;fill-opacity:1;fill-rule:nonzero;stroke:none"
             id="path42" />
        </g>
      </g>
      <g
         id="g44">
        <g
           id="g46"
           clip-path="url(#clipPath50)">
          <g
             id="g52"
             clip-path="url(#clipPath56)">
            <path
               d="m 615,803 v 25 h 18 v 1 h 17 v 1 h 16 v 1 h 16 v 1 h 15 v 1 h 15 v 1 h 16 v 1 h 15 v 1 h 14 v 1 h 15 v 1 h 14 v 1 h 14 v 1 h 14 v 1 h 12 v 1 h 12 v 1 h 11 v 1 h 11 v 1 h 10 v 1 h 10 v 1 h 10 v 1 h 9 v 1 h 10 v 1 h 9 v 1 h 8 v 1 h 9 v 1 h 8 v 1 h 8 v 1 h 8 v 1 h 8 v 1 h 8 v 1 h 7 v 1 h 7 v 1 h 7 v 1 h 7 v 1 h 7 v 1 h 7 v 1 h 6 v 1 h 6 v 1 h 7 v 1 h 6 v 1 h 6 v 1 h 6 v 1 h 6 v 1 h 6 v 1 h 5 v 1 h 6 v 1 h 5 v 1 h 6 v 1 h 5 v 1 h 6 v 1 h 5 v 1 h 5 v 1 h 5 v 1 h 5 v 1 h 4 v 1 h 5 v 1 h 5 v 1 h 5 v 1 h 5 v 1 h 4 v 1 h 5 v 1 h 4 v 1 h 4 v 1 h 5 v 1 h 4 v 1 h 4 v 1 h 4 v 1 h 4 v 1 h 4 v 1 h 4 v 1 h 4 v 1 h 4 v 1 h 3 v 1 h 4 v 1 h 4 v 1 h 3 v 1 h 4 v 1 h 3 v 1 h 4 v 1 h 3 v 1 h 4 v 1 h 3 v 1 h 3 v 1 h 3 v 1 h 3 v 1 h 3 v 1 h 3 v 1 h 3 v 1 h 3 v 1 h 3 v 1 h 3 v 1 h 3 v 1 h 2 v 1 h 3 v 1 h 3 v 1 h 2 v 1 h 3 v 1 h 2 v 1 h 3 v 1 h 2 v 1 h 3 v 1 h 2 v 1 h 2 v 1 h 2 v 1 h 2 v 1 h 3 v 1 h 2 v 1 h 2 v 1 h 2 v 1 h 2 v 1 h 1 v 1 h 2 v 1 h 2 v 1 h 2 v 1 h 1 v 1 h 2 v 1 h 1 v 1 h 2 v 1 h 1 v 1 h 2 v 1 h 1 v 1 h 2 v 1 h 1 v 1 h 1 v 1 h 1 v 1 h 1 v 1 h 1 v 1 h 1 v 1 h 1 v 1 h 1 v 2 h 1 v 2 h 1 v 3 h 20 v -8 h -1 v -4 h -1 v -2 h -1 v -2 h -1 v -1 h -1 v -2 h -1 v -2 h -1 v -1 h -1 v -2 h -1 v -1 h -1 v -1 h -1 v -1 h -1 v -1 h -1 v -1 h -1 v -1 h -1 v -1 h -1 v -1 h -1 v -1 h -1 v -1 h -2 v -1 h -1 v -1 h -1 v -1 h -1 v -1 h -2 v -1 h -1 v -1 h -2 v -1 h -2 v -1 h -1 v -1 h -2 v -1 h -1 v -1 h -2 v -1 h -1 v -1 h -2 v -1 h -2 v -1 h -2 v -1 h -2 v -1 h -2 v -1 h -2 v -1 h -2 v -1 h -2 v -1 h -2 v -1 h -2 v -1 h -2 v -1 h -2 v -1 h -3 v -1 h -3 v -1 h -2 v -1 h -3 v -1 h -2 v -1 h -3 v -1 h -2 v -1 h -3 v -1 h -2 v -1 h -3 v -1 h -3 v -1 h -3 v -1 h -3 v -1 h -3 v -1 h -3 v -1 h -3 v -1 h -3 v -1 h -3 v -1 h -3 v -1 h -4 v -1 h -3 v -1 h -3 v -1 h -4 v -1 h -3 v -1 h -4 v -1 h -3 v -1 h -4 v -1 h -3 v -1 h -4 v -1 h -4 v -1 h -4 v -1 h -4 v -1 h -4 v -1 h -4 v -1 h -4 v -1 h -4 v -1 h -5 v -1 h -4 v -1 h -4 v -1 h -4 v -1 h -5 v -1 h -4 v -1 h -5 v -1 h -4 v -1 h -5 v -1 h -5 v -1 h -5 v -1 h -5 v -1 h -5 v -1 h -5 v -1 h -5 v -1 h -5 v -1 h -5 v -1 h -5 v -1 h -6 v -1 h -5 v -1 h -6 v -1 h -6 v -1 h -6 v -1 h -6 v -1 h -6 v -1 h -6 v -1 h -6 v -1 h -6 v -1 h -7 v -1 h -8 v -1 h -7 v -1 h -7 v -1 h -7 v -1 h -7 v -1 h -7 v -1 h -7 v -1 h -7 v -1 h -7 v -1 h -9 v -1 h -9 v -1 h -8 v -1 h -9 v -1 h -9 v -1 h -9 v -1 h -8 v -1 h -9 v -1 h -10 v -1 h -11 v -1 h -11 v -1 h -10 v -1 h -11 v -1 h -12 v -1 h -13 v -1 h -13 v -1 h -14 v -1 h -13 v -1 h -15 v -1 h -14 v -1 h -14 v -1 h -15 v -1 h -15 v -1 h -15 v -1 h -15 v -1 h -15 v -1 h -16 v -1 h -18 v -1"
               style="fill:url(#linearGradient62);fill-opacity:1;fill-rule:nonzero;stroke:none"
               id="path64" />
          </g>
        </g>
      </g>
      <g
         id="g66">
        <g
           id="g68"
           clip-path="url(#clipPath72)">
          <g
             id="g74"
             clip-path="url(#clipPath78)">
            <path
               d="m 508,816 v 1 h -23 v 1 h -18 v 1 h -14 v 1 h -12 v 1 h -9 v 1 h -8 v 1 h -7 v 1 h -7 v 1 h -6 v 1 h -6 v 1 h -6 v 1 h -6 v 1 h -5 v 1 h -4 v 1 h -5 v 1 h -5 v 1 h -4 v 1 h -5 v 1 h -4 v 1 h -3 v 1 h -4 v 1 h -3 v 1 h -4 v 1 h -3 v 1 h -4 v 1 h -3 v 1 h -2 v 1 h -3 v 1 h -3 v 1 h -2 v 1 h -3 v 1 h -2 v 1 h -3 v 1 h -3 v 1 h -2 v 1 h -2 v 1 h -2 v 1 h -2 v 1 h -2 v 1 h -2 v 1 h -2 v 1 h -2 v 1 h -1 v 1 h -2 v 1 h -1 v 1 h -2 v 1 h -1 v 1 h -2 v 1 h -1 v 1 h -1 v 1 h -2 v 1 h -1 v 1 h -1 v 1 h -1 v 1 h -1 v 1 h -1 v 1 h -1 v 1 h -1 v 1 h -1 v 1 h -1 v 1 h -1 v 1 h -1 v 1 h -1 v 2 h -1 v 2 h -1 v 2 h -1 v 1 h -1 v 3 h -1 v 6 h 9 v -3 h 1 v -2 h 1 v -2 h 1 v -2 h 1 v -1 h 1 v -2 h 1 v -1 h 1 v -1 h 1 v -1 h 1 v -1 h 1 v -1 h 1 v -1 h 1 v -1 h 1 v -1 h 2 v -1 h 1 v -1 h 1 v -1 h 2 v -1 h 1 v -1 h 2 v -1 h 1 v -1 h 1 v -1 h 2 v -1 h 2 v -1 h 2 v -1 h 2 v -1 h 2 v -1 h 2 v -1 h 2 v -1 h 2 v -1 h 2 v -1 h 2 v -1 h 3 v -1 h 2 v -1 h 3 v -1 h 3 v -1 h 2 v -1 h 3 v -1 h 2 v -1 h 3 v -1 h 4 v -1 h 3 v -1 h 4 v -1 h 3 v -1 h 3 v -1 h 4 v -1 h 3 v -1 h 4 v -1 h 5 v -1 h 5 v -1 h 4 v -1 h 5 v -1 h 4 v -1 h 5 v -1 h 6 v -1 h 6 v -1 h 6 v -1 h 6 v -1 h 7 v -1 h 8 v -1 h 8 v -1 h 10 v -1 h 14 v -1 h 22 v -1 h 23 v -1 h 17 v -6 h -1 v -2"
               style="fill:url(#linearGradient84);fill-opacity:1;fill-rule:nonzero;stroke:none"
               id="path86" />
          </g>
        </g>
      </g>
      <path
         d="m 228.57,453.09 h -50.543 v 90.109 h 11.614 v -81.051 h 44.16 l -5.231,-9.058"
         style="fill:#ffffff;fill-opacity:1;fill-rule:nonzero;stroke:none"
         id="path88" />
      <g
         id="g90">
        <g
           id="g92"
           clip-path="url(#clipPath96)">
          <path
             d="m 283.957,453.602 c -2.039,-0.633 -6.629,-2.043 -13.777,-2.043 -18.891,0 -33.192,10.851 -33.192,32.929 0,19.653 12.129,33.184 28.969,33.184 8.172,0 15.449,-3.063 20.301,-9.57 5.359,-7.403 5.621,-17.614 5.738,-22.723 h -43.398 c 0,-3.949 0.129,-12.25 5.621,-18.25 4.719,-4.981 11.621,-6.758 18.508,-6.758 7.652,0 13.91,2.289 17.23,3.57 z m -3.699,40.078 c -0.129,2.679 -0.512,7.531 -4.09,11.359 -2.039,2.039 -5.48,4.082 -10.461,4.082 -7.527,0 -14.039,-4.98 -16.34,-15.441 h 30.891"
             style="fill:#ffffff;fill-opacity:1;fill-rule:nonzero;stroke:none"
             id="path98" />
          <path
             d="m 376.102,456.922 c -2.43,-0.641 -6,-1.41 -10.981,-1.41 -18.641,0 -29.738,12.636 -29.738,29.617 0,16.332 10.469,32.68 33.949,32.68 3.578,0 13.91,-0.387 23.359,-4.989 v -51.558 c 0,-7.153 0,-13.024 -3.699,-19.403 -5.238,-9.058 -15.058,-14.55 -27.699,-14.55 -3.832,0 -14.039,0.511 -22.973,5.871 v 11.109 c 1.66,-1.41 3.453,-2.937 7.274,-4.598 5.109,-2.171 10.847,-3.32 15.699,-3.32 8.68,0 15.961,3.449 18.891,11.867 1.66,4.723 1.66,9.453 1.66,17.231 z m 5.742,50.027 c -3.063,1.153 -7.91,2.301 -12.633,2.301 -12.77,0 -21.957,-8.68 -21.957,-22.98 0,-15.059 8.809,-22.2 19.777,-22.2 6.903,0 12.77,2.68 14.813,3.7 v 39.179"
             style="fill:#ffffff;fill-opacity:1;fill-rule:nonzero;stroke:none"
             id="path100" />
          <path
             d="m 451.527,453.602 c -2.05,-0.641 -6.64,-2.043 -13.781,-2.043 -18.891,0 -33.191,10.851 -33.191,32.929 0,19.66 12.121,33.184 28.972,33.184 8.168,0 15.45,-3.063 20.297,-9.57 5.364,-7.403 5.614,-17.622 5.742,-22.723 h -43.398 c 0,-3.949 0.129,-12.25 5.617,-18.25 4.723,-4.981 11.621,-6.758 18.512,-6.758 7.66,0 13.91,2.289 17.23,3.57 z m -3.703,40.078 c -0.129,2.679 -0.508,7.531 -4.078,11.359 -2.051,2.039 -5.5,4.082 -10.469,4.082 -7.531,0 -14.05,-4.973 -16.339,-15.441 z m -22.847,30.761 v 8.547 l 23.871,9.192 v -8.43 l -23.871,-9.309"
             style="fill:#ffffff;fill-opacity:1;fill-rule:nonzero;stroke:none"
             id="path102" />
          <path
             d="m 469.641,453.09 v 63.058 h 10.847 V 505.93 l 6.641,9.57 c 5.609,2.039 11.609,2.172 13.519,2.172 3.45,0 10.219,-0.512 15.84,-5.231 6.371,-5.492 6.5,-12.132 6.5,-18 V 453.09 H 512.02 v 36.879 c 0,10.851 -1.93,18.769 -14.809,18.769 -4.981,0 -11.363,-1.66 -16.723,-5.238 v -50.41 h -10.847"
             style="fill:#ffffff;fill-opacity:1;fill-rule:nonzero;stroke:none"
             id="path104" />
          <path
             d="m 550.297,538.48 c 0,-3.582 -2.813,-6.261 -6.129,-6.261 -3.441,0 -6.121,2.941 -6.121,6.261 0,3.309 2.551,6.25 6.121,6.25 3.316,0 6.129,-2.679 6.129,-6.25 m -0.641,-85.39 h -10.851 v 63.058 h 10.851 V 453.09"
             style="fill:#ffffff;fill-opacity:1;fill-rule:nonzero;stroke:none"
             id="path106" />
          <path
             d="m 608.367,453.602 c -2.039,-0.633 -6.629,-2.043 -13.777,-2.043 -18.891,0 -33.192,10.851 -33.192,32.929 0,19.653 12.129,33.184 28.969,33.184 8.172,0 15.453,-3.063 20.301,-9.57 5.359,-7.403 5.621,-17.614 5.742,-22.723 h -43.402 c 0,-3.949 0.133,-12.25 5.621,-18.25 4.719,-4.981 11.621,-6.758 18.512,-6.758 7.648,0 13.91,2.289 17.226,3.57 z m -3.699,40.078 c -0.129,2.679 -0.508,7.531 -4.09,11.359 -2.039,2.039 -5.48,4.082 -10.461,4.082 -7.527,0 -14.039,-4.98 -16.34,-15.441 h 30.891"
             style="fill:#ffffff;fill-opacity:1;fill-rule:nonzero;stroke:none"
             id="path108" />
          <path
             d="m 680.598,516.141 c 2.043,0.64 5.363,1.66 10.34,1.66 18.761,0 30.121,-12.379 30.121,-31.91 0,-19.653 -11.739,-34.332 -30.879,-34.332 -7.66,0 -12.262,2.043 -15.582,3.703 V 426.031 H 663.75 v 90.239 h 10.848 v -9.059 z m -6,-51.692 c 1.793,-1.148 6.511,-4.078 14.043,-4.078 14.297,0 20.797,11.609 20.797,25.141 0,7.777 -2.161,13.136 -4.84,16.468 -3.828,4.84 -9.45,7.008 -15.578,7.008 -6.629,0 -11.731,-2.297 -14.422,-3.566 v -40.973"
             style="fill:#ffffff;fill-opacity:1;fill-rule:nonzero;stroke:none"
             id="path110" />
          <path
             d="m 758.066,451.551 c -17.75,0 -29.097,12.25 -29.097,32.039 0,19.269 11.226,34.082 29.988,34.082 17.109,0 28.59,-12.891 28.59,-32.684 0,-19.777 -11.231,-33.437 -29.481,-33.437 m 18,33.187 c 0,11.364 -4.589,24.371 -17.621,24.371 -10.84,0 -17.867,-9.437 -17.867,-24.75 0,-4.718 0.508,-11.75 4.219,-16.98 3.441,-4.969 8.551,-7.277 13.398,-7.277 12.633,0 17.871,13.019 17.871,24.636"
             style="fill:#ffffff;fill-opacity:1;fill-rule:nonzero;stroke:none"
             id="path112" />
          <path
             d="m 852.766,453.09 h -10.852 v 10.211 l -6.641,-9.571 c -5.738,-2.039 -12,-2.171 -13.519,-2.171 -16.719,0 -22.34,10.211 -22.34,22.711 v 42 h 10.969 v -38.04 c 0,-9.949 2.051,-17.742 14.812,-17.742 5.098,0 11.618,1.793 16.719,5.242 v 50.54 h 10.852 v -63.18"
             style="fill:#ffffff;fill-opacity:1;fill-rule:nonzero;stroke:none"
             id="path114" />
          <path
             d="m 879.688,453.09 h -11.102 v 63.058 h 11.102 v -9.449 l 5.867,8.422 c 1.543,0.641 5.492,2.301 11.23,2.301 3.449,0 4.981,-0.524 7.02,-1.274 V 505.93 c -2.547,1.148 -5.481,2.429 -9.95,2.429 -6.128,0 -11.23,-2.937 -14.167,-4.98 V 453.09"
             style="fill:#ffffff;fill-opacity:1;fill-rule:nonzero;stroke:none"
             id="path116" />
        </g>
      </g>
      <path
         d="M 959.199,453.09 H 948.34 v 90.109 h 10.859 V 453.09"
         style="fill:#ffffff;fill-opacity:1;fill-rule:nonzero;stroke:none"
         id="path118" />
      <path
         d="m 976.555,519.59 h -7.289 l 9.449,23.621 h 10.34 l -12.5,-23.621"
         style="fill:#ffffff;fill-opacity:1;fill-rule:nonzero;stroke:none"
         id="path120" />
      <g
         id="g122">
        <g
           id="g124"
           clip-path="url(#clipPath128)">
          <path
             d="m 1012.92,538.48 c 0,-3.582 -2.81,-6.261 -6.12,-6.261 -3.45,0 -6.14,2.941 -6.14,6.261 0,3.309 2.56,6.25 6.14,6.25 3.31,0 6.12,-2.679 6.12,-6.25 m -0.64,-85.39 h -10.86 v 63.058 h 10.86 V 453.09"
             style="fill:#ffffff;fill-opacity:1;fill-rule:nonzero;stroke:none"
             id="path130" />
          <path
             d="m 1027.98,453.09 v 63.058 h 10.84 V 505.93 l 6.64,9.57 c 5.62,2.039 11.62,2.172 13.53,2.172 3.45,0 10.22,-0.512 15.83,-5.231 6.38,-5.492 6.51,-12.132 6.51,-18 V 453.09 h -10.98 v 36.879 c 0,10.851 -1.91,18.769 -14.8,18.769 -4.98,0 -11.36,-1.66 -16.73,-5.238 v -50.41 h -10.84"
             style="fill:#ffffff;fill-opacity:1;fill-rule:nonzero;stroke:none"
             id="path132" />
          <path
             d="m 1150.51,453.09 h -10.85 v 8.801 l -5.88,-8.801 c -2.42,-0.77 -5.1,-1.539 -9.82,-1.539 -20.68,0 -30.76,13.539 -30.76,31.918 0,17.863 10.85,34.203 30.5,34.203 3.19,0 9.83,-0.512 15.96,-3.832 v 29.359 h 10.85 z m -10.85,51.691 c -4.34,2.418 -9.2,3.949 -14.3,3.949 -2.3,0 -7.27,-0.25 -12.13,-4.199 -6.25,-4.992 -8.42,-13.281 -8.42,-21.453 0,-14.418 8.05,-22.719 20.3,-22.719 6.64,0 12.12,2.301 14.55,3.45 v 40.972"
             style="fill:#ffffff;fill-opacity:1;fill-rule:nonzero;stroke:none"
             id="path134" />
          <path
             d="m 1219.67,453.09 h -10.84 v 10.211 l -6.64,-9.571 c -5.75,-2.039 -12,-2.171 -13.54,-2.171 -16.71,0 -22.33,10.211 -22.33,22.711 v 42 h 10.98 v -38.04 c 0,-9.949 2.04,-17.742 14.8,-17.742 5.11,0 11.62,1.793 16.73,5.242 v 50.54 h 10.84 v -63.18"
             style="fill:#ffffff;fill-opacity:1;fill-rule:nonzero;stroke:none"
             id="path136" />
          <path
             d="m 1258.08,488.309 c 5.87,-2.809 13.53,-6.508 13.53,-17.36 0,-10.469 -8.17,-19.398 -22.08,-19.398 -6,0 -11.74,1.66 -17.23,4.09 v 10.078 c 1.53,-1.028 3.19,-2.039 6.12,-3.321 2.82,-1.148 6.39,-2.296 9.96,-2.296 8.3,0 11.74,5.617 11.74,10.207 0,6.652 -5.74,8.941 -9.83,10.601 l -4.33,1.531 c -4.6,1.918 -13.4,5.489 -13.4,16.59 0,10.848 9.06,18.629 21.44,18.629 7.27,0 12.63,-2.551 14.55,-3.57 v -9.699 c -3.58,3.191 -8.17,4.98 -13.02,4.98 -8.42,0 -11.61,-5.109 -11.61,-9.711 0,-5.219 4.46,-7.269 8.29,-8.922 l 5.87,-2.429"
             style="fill:#ffffff;fill-opacity:1;fill-rule:nonzero;stroke:none"
             id="path138" />
          <path
             d="m 1305.05,452.32 c -1.79,-0.379 -3.58,-0.769 -5.62,-0.769 -4.34,0 -8.8,1.41 -11.48,4.859 -3.07,3.699 -3.07,7.27 -3.07,14.031 v 37.789 h -7.4 l 6,8.04 h 1.4 v 12.25 l 10.98,3.449 V 516.27 h 13.02 v -8.04 h -13.02 v -32.679 c 0,-6.891 0,-7.66 0.25,-9.063 1.02,-6 5.62,-6.508 7.79,-6.508 1.28,0 3.96,0.258 7.66,1.79 l -6.51,-9.45"
             style="fill:#ffffff;fill-opacity:1;fill-rule:nonzero;stroke:none"
             id="path140" />
          <path
             d="m 1329.04,453.09 h -11.11 v 63.058 h 11.11 v -9.449 l 5.87,8.422 c 1.54,0.641 5.49,2.301 11.23,2.301 3.45,0 4.98,-0.524 7.02,-1.274 V 505.93 c -2.55,1.148 -5.48,2.429 -9.95,2.429 -6.13,0 -11.23,-2.937 -14.17,-4.98 V 453.09"
             style="fill:#ffffff;fill-opacity:1;fill-rule:nonzero;stroke:none"
             id="path142" />
          <path
             d="m 1371.92,538.48 c 0,-3.582 -2.81,-6.261 -6.13,-6.261 -3.44,0 -6.13,2.941 -6.13,6.261 0,3.309 2.56,6.25 6.13,6.25 3.32,0 6.13,-2.679 6.13,-6.25 m -0.64,-85.39 h -10.85 v 63.058 h 10.85 V 453.09"
             style="fill:#ffffff;fill-opacity:1;fill-rule:nonzero;stroke:none"
             id="path144" />
          <path
             d="m 1429.99,453.602 c -2.05,-0.633 -6.64,-2.043 -13.78,-2.043 -18.89,0 -33.19,10.851 -33.19,32.929 0,19.653 12.12,33.184 28.97,33.184 8.17,0 15.45,-3.063 20.3,-9.57 5.36,-7.403 5.61,-17.614 5.74,-22.723 h -43.4 c 0,-3.949 0.13,-12.25 5.62,-18.25 4.72,-4.981 11.62,-6.758 18.51,-6.758 7.65,0 13.91,2.289 17.23,3.57 z m -3.7,40.078 c -0.13,2.679 -0.51,7.531 -4.09,11.359 -2.04,2.039 -5.49,4.082 -10.46,4.082 -7.53,0 -14.05,-4.98 -16.34,-15.441 h 30.89"
             style="fill:#ffffff;fill-opacity:1;fill-rule:nonzero;stroke:none"
             id="path146" />
        </g>
      </g>
      <path
         d="m 1710.07,535.031 v -51.48 c 0,-8.031 0.13,-13.852 -2.2,-19.41 -3.89,-9.059 -13.2,-13.582 -23.3,-13.582 -12.81,0 -20.96,7.113 -23.67,14.742 -1.69,5.179 -1.69,12.551 -1.69,18.25 v 51.48 h -12.14 V 478.5 c 0,-9.57 0.9,-19.918 9.82,-27.941 7.37,-6.59 17.33,-9.168 27.56,-9.168 11.38,0 24.97,3.609 32.34,14.847 4.65,6.992 5.16,13.723 5.16,20.832 v 57.961 z m 39.18,-91.32 v 51.109 c 5.44,3.621 11.91,5.301 16.96,5.301 13.07,0 15.01,-8.019 15.01,-19.019 v -37.391 h 11.11 v 41.918 c 0,5.949 -0.13,12.68 -6.59,18.23 -5.68,4.782 -12.54,5.301 -16.03,5.301 -1.95,0 -8.03,-0.129 -13.73,-2.191 l -6.73,-9.707 v 10.34 h -10.98 v -63.891 z m 70.12,63.891 h -10.98 v -63.891 h 10.98 z m -5.55,28.988 c -3.62,0 -6.21,-2.969 -6.21,-6.34 0,-3.359 2.72,-6.328 6.21,-6.328 3.35,0 6.2,2.719 6.2,6.328 0,3.621 -2.85,6.34 -6.2,6.34 m 72.69,-28.988 h -10.73 l -17.98,-51.743 -18.88,51.743 h -11.64 l 24.45,-63.891 h 10.85 z m 57.71,-52.903 c -3.36,-1.289 -9.69,-3.629 -17.46,-3.629 -6.99,0 -13.98,1.809 -18.77,6.86 -5.56,6.09 -5.7,14.511 -5.7,18.519 h 44 c -0.14,5.16 -0.4,15.512 -5.82,23.02 -4.92,6.59 -12.29,9.691 -20.57,9.691 -17.09,0 -29.37,-13.711 -29.37,-33.621 0,-22.398 14.48,-33.379 33.64,-33.379 7.25,0 11.91,1.422 13.97,2.07 z m -41.14,30.133 c 2.32,10.617 8.92,15.68 16.56,15.68 5.05,0 8.54,-2.071 10.61,-4.153 3.63,-3.879 4.02,-8.8 4.14,-11.527 z m 64.67,9.848 c 2.98,2.082 8.15,5.05 14.36,5.05 4.54,0 7.51,-1.289 10.1,-2.46 v 10.332 c -2.08,0.789 -3.63,1.296 -7.12,1.296 -5.82,0 -9.83,-1.668 -11.39,-2.32 l -5.95,-8.547 v 9.571 h -11.23 v -63.891 h 11.23 z m 48.78,-12.809 c -3.88,1.68 -8.41,3.758 -8.41,9.059 0,4.66 3.23,9.84 11.79,9.84 4.91,0 9.57,-1.821 13.19,-5.051 v 9.82 c -1.95,1.039 -7.38,3.621 -14.75,3.621 -12.56,0 -21.73,-7.879 -21.73,-18.879 0,-11.25 8.91,-14.883 13.57,-16.82 l 4.4,-1.551 c 4.14,-1.68 9.97,-4.019 9.97,-10.738 0,-4.66 -3.49,-10.352 -11.91,-10.352 -3.62,0 -7.24,1.16 -10.09,2.321 -2.97,1.289 -4.64,2.328 -6.2,3.371 v -10.223 c 5.55,-2.449 11.37,-4.129 17.46,-4.129 14.1,0 22.37,9.051 22.37,19.66 0,11 -7.75,14.75 -13.69,17.602 z m 42.56,25.731 h -10.97 v -63.891 h 10.97 z m -5.56,28.988 c -3.62,0 -6.2,-2.969 -6.2,-6.34 0,-3.359 2.72,-6.328 6.2,-6.328 3.36,0 6.21,2.719 6.21,6.328 0,3.621 -2.85,6.34 -6.21,6.34 m 50.07,-84.102 c -3.75,-1.547 -6.48,-1.808 -7.77,-1.808 -2.19,0 -6.85,0.511 -7.89,6.59 -0.25,1.421 -0.25,2.191 -0.25,9.16 v 33.039 h 13.18 v 8.133 h -13.18 v 15.918 l -11.12,-3.5 v -12.418 h -1.43 l -6.07,-8.133 h 7.5 V 461.27 c 0,-6.848 0,-10.45 3.11,-14.211 2.7,-3.477 7.22,-4.899 11.62,-4.899 2.07,0 3.89,0.391 5.7,0.77 z m 47.34,72.973 V 534 l -24.18,-9.32 v -8.668 z m 8.8,-70.762 c -3.36,-1.289 -9.68,-3.629 -17.45,-3.629 -7,0 -13.99,1.809 -18.77,6.86 -5.57,6.09 -5.69,14.511 -5.69,18.519 h 43.98 c -0.12,5.16 -0.38,15.512 -5.81,23.02 -4.91,6.59 -12.28,9.691 -20.57,9.691 -17.09,0 -29.36,-13.711 -29.36,-33.621 0,-22.398 14.47,-33.379 33.62,-33.379 7.25,0 11.91,1.422 13.98,2.07 z m -41.14,30.133 c 2.33,10.617 8.93,15.68 16.57,15.68 5.05,0 8.55,-2.071 10.61,-4.153 3.63,-3.879 4.01,-8.8 4.14,-11.527 z m 145.28,50.199 h -10.97 v -29.75 c -6.22,3.36 -12.95,3.879 -16.19,3.879 -19.93,0 -30.91,-16.539 -30.91,-34.672 0,-18.629 10.21,-32.328 31.17,-32.328 4.79,0 7.51,0.77 9.97,1.551 l 5.96,8.91 v -8.91 h 10.97 z m -10.97,-80.461 c -2.47,-1.16 -8.03,-3.5 -14.77,-3.5 -12.42,0 -20.57,8.41 -20.57,23.039 0,8.282 2.2,16.692 8.54,21.731 4.92,4.031 9.97,4.281 12.3,4.281 5.17,0 10.1,-1.551 14.5,-4.012 z m 81.09,53.032 h -10.98 V 456.5 c -5.17,-3.5 -11.78,-5.289 -16.95,-5.289 -12.95,0 -15.02,7.867 -15.02,17.93 v 38.461 h -11.11 v -42.461 c 0,-12.653 5.69,-22.981 22.63,-22.981 1.55,0 7.9,0.129 13.71,2.199 l 6.74,9.68 V 443.711 H 2334 Z m 147.87,-69.582 -16.55,16.019 c 3.63,3.5 14.73,14.383 14.73,35.723 0,26.527 -19.64,47.609 -47.85,47.609 -29.63,0 -47.47,-23.539 -47.47,-48.519 0,-26.391 18.87,-47.34 47.6,-47.34 13.2,0 20.97,4.386 23.68,5.937 l 17.59,-17.32 z m -49.02,12.8 c -22,0 -35.33,17.461 -35.33,38.289 0,22.141 14.62,39.211 34.68,39.211 19.54,0 34.94,-16.05 34.94,-38.679 0,-19.942 -12.55,-38.821 -34.29,-38.821 m 114.09,56.782 h -10.98 V 456.5 c -5.17,-3.5 -11.77,-5.289 -16.95,-5.289 -12.95,0 -15.01,7.867 -15.01,17.93 v 38.461 h -11.11 v -42.461 c 0,-12.653 5.68,-22.981 22.62,-22.981 1.56,0 7.9,0.129 13.73,2.199 l 6.72,9.68 v -10.328 h 10.98 z m 56.92,17.859 V 534 l -24.16,-9.32 v -8.668 z m 8.8,-70.762 c -3.36,-1.289 -9.68,-3.629 -17.45,-3.629 -6.99,0 -13.97,1.809 -18.76,6.86 -5.58,6.09 -5.7,14.511 -5.7,18.519 h 43.98 c -0.12,5.16 -0.38,15.512 -5.81,23.02 -4.91,6.59 -12.28,9.691 -20.57,9.691 -17.09,0 -29.36,-13.711 -29.36,-33.621 0,-22.398 14.47,-33.379 33.63,-33.379 7.25,0 11.9,1.422 13.98,2.07 z m -41.14,30.133 c 2.33,10.617 8.94,15.68 16.57,15.68 5.05,0 8.55,-2.071 10.61,-4.153 3.63,-3.879 4.01,-8.8 4.15,-11.527 z m 64.3,50.199 h -10.85 v -86.41 c 6.07,-3.359 15.77,-6.461 24.57,-6.461 21.35,0 33.51,15.77 33.51,35.059 0,18.25 -10.6,31.941 -29.11,31.941 -4.79,0 -9.06,-0.769 -12.29,-1.422 l -5.83,-8.519 z m 0,-38.011 c 2.07,0.902 7.12,2.968 14.37,2.968 4.79,0 11.13,-0.91 15.91,-6.859 3.63,-4.66 5.19,-11.129 5.19,-16.82 0,-9.969 -4.92,-25.368 -21.24,-25.368 -7.5,0 -12.29,2.981 -14.23,4.278 z m 111.65,-42.321 c -3.36,-1.289 -9.69,-3.629 -17.45,-3.629 -6.99,0 -13.98,1.809 -18.78,6.86 -5.56,6.09 -5.69,14.511 -5.69,18.519 h 43.99 c -0.13,5.16 -0.39,15.512 -5.82,23.02 -4.91,6.59 -12.28,9.691 -20.57,9.691 -17.09,0 -29.36,-13.711 -29.36,-33.621 0,-22.398 14.47,-33.379 33.64,-33.379 7.25,0 11.9,1.422 13.97,2.07 z m -41.14,30.133 c 2.32,10.617 8.92,15.68 16.56,15.68 5.05,0 8.55,-2.071 10.61,-4.153 3.63,-3.879 4.02,-8.8 4.15,-11.527 z m 103.36,-30.523 c -3.49,-1.168 -7.37,-2.469 -8.8,-2.719 -2.2,-0.52 -4.52,-0.77 -6.72,-0.77 -15.01,0 -23.68,10.86 -23.68,24.84 0,15.141 8.92,24.719 21.61,24.719 5.56,0 10.87,-1.938 15.53,-4.91 v 10.59 c -6.21,2.582 -12.42,3.23 -15.92,3.23 -21.99,0 -33.24,-17.059 -33.24,-34.269 0,-8.551 2.6,-16.961 8.54,-23.18 7.88,-8.129 18.61,-9.68 24.18,-9.68 4.92,0 10.74,1.551 12.68,2.07 l 5.82,10.079"
         style="fill:#ffffff;fill-opacity:1;fill-rule:nonzero;stroke:none"
         id="path148" />
      <path
         d="m 1645.49,698.961 c 15.23,-6.344 28.88,-6.824 33.01,-6.824 26.85,0 42.08,16.664 42.08,35.715 0,21.132 -16.18,28.593 -24.12,32.253 l -8.1,3.329 c -6.83,3.183 -13.67,6.199 -13.67,13.984 0,4.602 3.02,12.07 14.94,12.07 9.84,0 17.94,-3.648 25.4,-10.004 v 23.965 c -9.36,4.446 -18.09,6.512 -28.58,6.512 -28.59,0 -40.65,-18.731 -40.65,-34.922 0,-20.816 17.94,-28.758 26.19,-32.254 l 6.35,-2.535 c 6.05,-2.703 12.88,-5.719 12.88,-13.98 0,-3.809 -1.74,-7.473 -4.29,-9.696 -2.54,-2.066 -6.68,-3.652 -12.24,-3.652 -5.87,0 -12.7,1.91 -18.73,4.613 -5.39,2.535 -8.25,4.758 -10.47,6.512 z m 167.54,108.141 v -66.227 c 0,-15.242 -3.97,-27.473 -21.77,-27.473 -19.38,0 -22.24,13.817 -22.24,29.696 v 64.004 h -29.21 v -69.879 c 0,-7.785 0.33,-23.664 14.13,-34.453 6.19,-4.915 17.62,-10.633 36.84,-10.633 18.28,0 37.17,4.601 46.05,20.785 4.93,9.058 5.24,19.531 5.24,26.523 v 67.657 z m 81.76,-67.633 h 14.47 c 8.58,0.156 27.64,0.469 38.27,15.703 3.48,5.082 5.55,11.758 5.55,18.426 0,22.39 -18.25,33.504 -38.26,33.504 H 1865.6 V 694.996 h 29.19 z m 0,46.847 h 12.56 c 8.74,0 16.37,-3.972 16.37,-13.824 0,-3.976 -1.59,-7.629 -4.61,-10.176 -4.29,-3.648 -9.85,-3.804 -12.71,-3.804 l -11.61,-16.532 z m 151.2,-69.105 h -51.93 v 24.48 h 37.31 v 21.887 h -37.31 v 21.469 h 43.51 v 22.055 h -72.72 V 694.996 h 68.43 z m -22.4,110.531 v 17.465 l -37.14,-14.281 V 813.77 Z m 103.4,-80.043 c 3.65,2.235 10.32,6.199 14.28,15.098 1.9,3.976 2.86,8.422 2.86,13.035 0,22.066 -18.41,31.27 -35.88,31.27 h -50.82 V 694.996 H 2086 v 47.164 c 6.36,0 7.15,0 12.71,0.324 l 28.59,-47.488 h 31.91 z M 2086,786.477 h 9.22 c 6.19,0 11.6,0 15.25,-2.704 2.39,-1.585 4.93,-4.925 4.93,-10.007 0,-6.524 -4.12,-11.282 -10.01,-12.711 -2.55,-0.633 -4.77,-0.633 -8.26,-0.801 L 2086,744.527 Z m 113.39,20.625 h -29.36 V 694.996 h 29.36 z m 104.81,-89.891 h -51.93 v 24.48 h 37.33 v 21.887 h -37.33 v 21.469 h 43.51 v 22.055 h -72.71 V 694.996 h 68.43 z m 84.67,89.891 v -66.227 c 0,-15.242 -3.98,-27.473 -21.77,-27.473 -19.38,0 -22.24,13.817 -22.24,29.696 v 64.004 h -29.21 v -69.879 c 0,-7.785 0.33,-23.664 14.13,-34.453 6.19,-4.915 17.62,-10.633 36.84,-10.633 18.27,0 37.16,4.601 46.05,20.785 4.92,9.058 5.24,19.531 5.24,26.523 v 67.657 z m 122.11,-59.403 c 3.65,2.235 10.32,6.199 14.29,15.098 1.91,3.976 2.85,8.422 2.85,13.035 0,22.066 -18.41,31.27 -35.88,31.27 h -50.81 V 694.996 h 28.56 v 47.164 c 6.36,0 7.16,0 12.73,0.324 l 28.57,-47.488 h 31.92 z m -40.99,38.778 h 9.23 c 6.2,0 11.59,0 15.26,-2.704 2.37,-1.585 4.92,-4.925 4.92,-10.007 0,-6.524 -4.13,-11.282 -10.02,-12.711 -2.53,-0.633 -4.77,-0.633 -8.26,-0.801 l -11.13,-15.727 z m 165.17,-69.266 h -51.93 v 24.48 h 37.32 v 21.887 h -37.32 v 21.469 h 43.51 v 22.055 h -72.72 V 694.996 h 68.43 l 12.71,22.215"
         style="fill:#ffffff;fill-opacity:1;fill-rule:nonzero;stroke:none"
         id="path150" />
      <path
         d="m 1699.78,955.758 h 31.76 v 22.211 h -93.04 v -22.211 h 32.08 v -89.895 h 29.2 z M 1820.8,888.09 h -51.93 v 24.469 h 37.31 v 21.902 h -37.31 v 21.453 h 43.51 v 22.055 h -72.72 V 865.863 h 68.43 z m 108.93,1.43 c -9.2,-3.821 -19.21,-6.043 -29.21,-6.043 -26.05,0 -41.29,16.839 -41.29,38.441 0,20.492 14.12,37.805 38.91,37.805 13.33,0 22.55,-5.875 26.51,-8.41 v 24.914 c -7.62,2.222 -17.31,4.601 -30.01,4.601 -43.51,0 -65.89,-28.566 -65.89,-60.183 0,-32.399 23.65,-57.629 63.83,-57.629 12.38,0 19.37,1.898 23.49,3.004 z m 114.03,88.449 h -29.36 v -42.082 h -43.69 v 42.082 H 1941.5 V 865.863 h 29.21 v 47.813 h 43.69 v -47.813 h 29.36 z m 132.28,0 H 2147.8 V 917.16 l -54.81,60.809 h -25.71 V 865.863 h 28.41 v 68.125 l 61.47,-68.125 h 18.88 z m 139.44,-55.414 c 0,31.449 -22.38,58.273 -61.14,58.273 -38.27,0 -61.44,-26.019 -61.44,-58.91 0,-33.672 23.01,-58.902 62.08,-58.902 39.08,0 60.5,28.558 60.5,59.539 m -61.14,-37.325 c -19.06,0 -30.5,16.196 -30.5,36.844 0,21.285 12.08,37.18 30.5,37.18 18.75,0 30.19,-16.051 30.19,-37.649 0,-17 -9.37,-36.375 -30.19,-36.375 m 158.65,3.016 h -51.61 v 89.723 h -29.36 V 865.863 h 67.94 z m 120.89,34.309 c 0,31.449 -22.38,58.273 -61.13,58.273 -38.29,0 -61.45,-26.019 -61.45,-58.91 0,-33.672 23.01,-58.902 62.08,-58.902 39.07,0 60.5,28.558 60.5,59.539 m -61.13,-37.325 c -19.07,0 -30.5,16.196 -30.5,36.844 0,21.285 12.07,37.18 30.5,37.18 18.74,0 30.18,-16.051 30.18,-37.649 0,-17 -9.38,-36.375 -30.18,-36.375 m 187.7,42.551 h -42.4 l -11.43,-20.148 h 26.53 l -0.32,-21.297 c -3.81,-1.43 -8.89,-3.34 -17,-3.34 -25.42,0 -38.92,18.438 -38.92,38.598 0,22.246 17,38.297 42.42,38.297 16.84,0 28.42,-6.993 33.35,-10.02 v 25.082 c -12.55,3.977 -23.81,5.875 -36.85,5.875 -45.59,0 -69.07,-28.41 -69.07,-59.547 0,-34.777 25.07,-58.265 64.94,-58.265 16.69,0 33.04,4.121 48.43,10.789 z m 48.44,50.188 h -29.37 V 865.863 h 29.37 z M 2813.7,888.09 h -51.93 v 24.469 h 37.32 v 21.902 h -37.32 v 21.453 h 43.51 v 22.055 h -72.72 V 865.863 h 68.43 l 12.71,22.227"
         style="fill:#ffffff;fill-opacity:1;fill-rule:nonzero;stroke:none"
         id="path152" />
      <path
         d="m 1728.21,1058.96 h -51.93 v 24.48 h 37.32 v 21.88 h -37.32 v 21.47 h 43.51 v 22.06 h -72.72 v -112.11 h 68.43 z m -22.39,110.52 v 17.47 l -37.15,-14.28 v -17.15 z m 127.99,-109.09 c -9.21,-3.82 -19.21,-6.03 -29.21,-6.03 -26.05,0 -41.29,16.82 -41.29,38.44 0,20.49 14.13,37.8 38.9,37.8 13.34,0 22.56,-5.88 26.52,-8.42 v 24.91 c -7.62,2.23 -17.31,4.61 -30.01,4.61 -43.51,0 -65.89,-28.57 -65.89,-60.18 0,-32.41 23.64,-57.64 63.83,-57.64 12.38,0 19.37,1.9 23.49,3.02 z m 130.86,33.04 c 0,31.45 -22.37,58.27 -61.12,58.27 -38.29,0 -61.46,-26.02 -61.46,-58.9 0,-33.69 23.02,-58.92 62.08,-58.92 39.08,0 60.5,28.57 60.5,59.55 m -61.12,-37.33 c -19.07,0 -30.51,16.2 -30.51,36.85 0,21.29 12.07,37.17 30.51,37.17 18.74,0 30.17,-16.04 30.17,-37.65 0,-17 -9.37,-36.37 -30.17,-36.37 m 158.63,3.01 h -51.61 v 89.74 h -29.36 v -112.11 h 67.95 z m 89.41,-0.15 h -51.93 v 24.48 h 37.32 v 21.88 h -37.32 v 21.47 h 43.51 v 22.06 h -72.72 v -112.11 h 68.43 z m 54.49,-22.22 h 44.14 c 12.55,0 30.66,0.64 45.9,16.03 9.99,10.16 15.71,24.93 15.71,40.97 0,35.1 -24.45,55.11 -55.57,55.11 h -50.18 z m 29.05,90.36 h 11.91 c 20.33,-0.31 33.84,-13.02 33.84,-34.15 0,-10.95 -3.82,-24.94 -18.11,-31.45 -6.68,-3.02 -13.19,-3.18 -19.39,-3.18 h -8.25 z m 174.52,-68.14 h -51.93 v 24.48 h 37.32 v 21.88 h -37.32 v 21.47 h 43.52 v 22.06 h -72.71 v -112.11 h 68.42 l 12.7,22.22"
         style="fill:#ffffff;fill-opacity:1;fill-rule:nonzero;stroke:none"
         id="path154" />
    </g>
  </g>
</svg>
