<svg xmlns="http://www.w3.org/2000/svg" viewBox="0 0 305.11 94.9"><defs><style>.cls-1{fill:#004877;}.cls-2{fill:#009ee0;}</style></defs><title>Fichier 2</title><g id="Calque_2" data-name="Calque 2"><g id="Calque_1-2" data-name="Calque 1"><path class="cls-1" d="M107,53.86v-18h10.07a4.74,4.74,0,0,1,4.1,1.73h0a6.7,6.7,0,0,1,1,4h0a7.39,7.39,0,0,1-.65,3.43h0A4.69,4.69,0,0,1,117,47.43h-6.45v6.43Zm3.52-9.53h4.77a9.8,9.8,0,0,0,2.29-.15h0a1.09,1.09,0,0,0,.86-.74h0a4.6,4.6,0,0,0,.21-1.58h0c0-1.56-.21-2.28-.44-2.48h0c-.19-.23-.77-.39-2-.38h-5.64v5.34Z"/><path class="cls-1" d="M140.54,35.77c2.34,0,4,.36,5.18,1.43h0c1.16,1.09,1.5,2.71,1.5,4.84h0v5.88c0,2-.41,3.61-1.57,4.67h0c-1.17,1-2.85,1.4-5.12,1.4h-2.47c-2.27,0-4-.36-5.12-1.4h0c-1.17-1.06-1.57-2.64-1.57-4.67h0V42c0-2.13.35-3.75,1.5-4.84h0c1.16-1.07,2.85-1.41,5.2-1.43h2.47m-2.47,3.09c-1.51,0-2.28.21-2.6.54h0c-.34.3-.58,1.07-.57,2.64h0v5.88c0,1.58.3,2.22.67,2.51h0a4.22,4.22,0,0,0,2.5.47h2.47a4.24,4.24,0,0,0,2.51-.47h0c.37-.28.66-.93.66-2.51h0V42c0-1.57-.23-2.33-.57-2.64h0c-.31-.33-1.09-.55-2.6-.54h-2.47"/><path class="cls-1" d="M158.3,53.86v-18h3.53V50.76h9.35v3.1Z"/><path class="cls-1" d="M184.58,53.86V46.47L177.18,35.9h4.19l5.06,7.2,5.05-7.2h4.26l-7.64,10.58v7.38Z"/><path class="cls-1" d="M209.29,53.86V39h-5.95V35.9h15.42V39h-5.95V53.86Z"/><path class="cls-1" d="M228.61,53.86v-18h13.24V39h-9.71v4.17h9.3v3h-9.3v4.61h9.71v3.1Z"/><path class="cls-1" d="M258.71,54h0a6.17,6.17,0,0,1-4.42-1.56h0a5.84,5.84,0,0,1-1.63-4.35h0V41.69c0-2.48.94-4.17,2.54-5h0a12.93,12.93,0,0,1,5.84-.93h1.71c2,0,3.47.38,4.46,1.37h0a5.59,5.59,0,0,1,1.28,4.11h0V42.5H265V41.31c0-1.12-.16-1.71-.41-2h0c-.23-.26-.8-.49-2.1-.49h-1.17a14.89,14.89,0,0,0-3.55.28h0a1.72,1.72,0,0,0-1.31,1h0a3.73,3.73,0,0,0-.24,1.52h0v4.54a14.58,14.58,0,0,0,.21,3.21h0a1.61,1.61,0,0,0,1,1.27h0a4.5,4.5,0,0,0,1.75.27h2.47a10.24,10.24,0,0,0,2.64-.23h0c.54-.18.68-.32.84-.67h0a3.18,3.18,0,0,0,.16-1.16h0v-2h3.53v2.27a4.24,4.24,0,0,1-2.2,4.17h0a11.12,11.12,0,0,1-4.88.76h-2.94"/><path class="cls-1" d="M292.15,53.86v-7.6h-9.3v7.6h-3.52v-18h3.53v7.27h9.3V35.9h3.53v18Z"/><path class="cls-1" d="M302.68,33.57a2.37,2.37,0,1,1-2.43,2.37A2.35,2.35,0,0,1,302.68,33.57Zm0,4.23a1.86,1.86,0,1,0-1.79-1.86A1.8,1.8,0,0,0,302.68,37.8Zm1.24-1.47a1.14,1.14,0,0,1-1.15,1,1.33,1.33,0,0,1-1.36-1.41,1.31,1.31,0,0,1,1.35-1.42,1.09,1.09,0,0,1,1.14,1h-.49a.62.62,0,0,0-.65-.48c-.48,0-.74.38-.74.9a.82.82,0,0,0,.75.91.58.58,0,0,0,.64-.49Z"/><path class="cls-2" d="M44,0A44.9,44.9,0,0,0,0,36H18.37a27.12,27.12,0,1,1,0,17.82H0V76.73C0,96,16.73,94.88,16.73,94.88V80.54A44.88,44.88,0,1,0,44,0Z"/><path class="cls-2" d="M122.07,76.32h-2V67.37c0-.68,0-.93,0-1.89l0-.24V65l0-.24v-.22h-.06c-.54,1.63-.7,2.11-.88,2.52l-3.72,9.26h-1.93l-3.76-9.16c-.16-.4-.26-.66-.6-1.69l-.08-.2L109,65l-.06-.2-.08-.22h0v.24c0,.24,0,.44,0,.44.06,1.25.06,1.41.06,2.07v8.94h-2V62.91h3.4l3,7.39c.22.56.34.88.8,2.19l.1.26.08.28.1.26.1.28h.06l.1-.28.1-.26.08-.28.1-.26c.44-1.29.58-1.65.78-2.19l3-7.39h3.46Z"/><path class="cls-2" d="M135.88,63.29a3.62,3.62,0,0,1,1.91,3,20.76,20.76,0,0,1,.12,3.2,20.78,20.78,0,0,1-.14,3.52c-.4,2.67-1.67,3.48-5.46,3.48-2.59,0-3.44-.12-4.32-.64a3.44,3.44,0,0,1-1.63-2.8,19.07,19.07,0,0,1-.14-3.35,19.44,19.44,0,0,1,.14-3.34c.42-2.69,1.71-3.52,5.51-3.52C134.28,62.79,135,62.89,135.88,63.29Zm0,6.29V67.71a3.8,3.8,0,0,0-.64-2.55c-.48-.52-1-.6-3.46-.6-3,0-3.46.5-3.46,3.58,0,.82,0,.82,0,1.49v1.11c0,1.93.16,2.85.62,3.34s1,.61,3.5.61c1.65,0,2.31-.14,2.75-.58a4.09,4.09,0,0,0,.66-2.63Z"/><path class="cls-2" d="M154,76.32h-3.44l-4.7-8.2c-.22-.4-.42-.8-1.19-2.29l-.16-.3-.42-.85H144c0,.93,0,.55,0,1.17,0,.46,0,.76,0,1.63v8.84h-2V62.91h3.42l4.16,7.37c.48.84.8,1.45,2.31,4.28H152v-.22c0-.6,0-.32,0-.93s0-.78,0-1.61v-8.9h2Z"/><path class="cls-2" d="M163.88,76.32h-2.05V64.76h-4.1V62.91H168v1.85h-4.16Z"/><path class="cls-2" d="M171.78,62.91h5.51c2,0,2.45,0,3.12.34,1.19.52,1.75,1.77,1.75,3.86,0,2.61-.58,3.76-2.15,4.24a9.21,9.21,0,0,1-2.75.18h-3.42v4.78h-2.05Zm5.29,6.85c2.61,0,3-.32,3-2.47,0-1.73-.22-2.29-1-2.53a5.09,5.09,0,0,0-1.67-.12h-3.6v5.12Z"/><path class="cls-2" d="M187.94,68.64h6.53v1.59h-6.53v4.36h6.87v1.73h-8.92V62.91h8.88v1.73h-6.83Z"/><path class="cls-2" d="M201.21,74.47h6.57v1.85h-8.62V62.91h2Z"/><path class="cls-2" d="M213.55,74.47h6.57v1.85H211.5V62.91h2Z"/><path class="cls-2" d="M225.89,76.32h-2.05V62.91h2.05Z"/><path class="cls-2" d="M232.43,68.64H239v1.59h-6.53v4.36h6.87v1.73h-8.92V62.91h8.88v1.73h-6.83Z"/><path class="cls-2" d="M243.64,62.91h6.49c3.1,0,4.14,1,4.14,4,0,2.51-.5,3.28-2.37,3.62v.06c1.51.12,2.21.95,2.21,2.59v3.15H252V73.61c0-1.67-.54-2.19-2.27-2.19h-4.08v4.9h-2Zm6,6.73c2,0,2.54-.53,2.54-2.37,0-2.17-.34-2.59-2.19-2.59h-4.32v5Z"/></g></g></svg>