<svg width="369.905" height="73.603" viewBox="0 0 369.905 73.603" xmlns="http://www.w3.org/2000/svg"><g id="svgGroup" stroke-linecap="round" fill-rule="evenodd" font-size="9pt" stroke="#000" stroke-width="0.25mm" fill="#000" style="stroke:#000;stroke-width:0.25mm;fill:#000"><path d="M 159.5 4.802 L 159.5 29.802 C 159.5 31.702 160.6 32.802 162.5 32.802 L 172.1 32.802 C 173.749 32.802 174.719 32.054 175.008 30.727 A 4.346 4.346 0 0 0 175.1 29.802 L 175.1 4.802 C 175.1 2.902 176.2 1.802 178.1 1.802 L 189.3 1.802 C 190.887 1.802 191.845 2.432 192.172 3.691 A 4.42 4.42 0 0 1 192.3 4.802 L 192.3 68.802 C 192.3 70.379 191.611 71.405 190.233 71.708 A 4.346 4.346 0 0 1 189.3 71.802 L 178.1 71.802 C 176.2 71.802 175.1 70.702 175.1 68.802 L 175.1 53.002 C 175.1 51.415 174.471 50.458 173.211 50.13 A 4.42 4.42 0 0 0 172.1 50.002 L 162.5 50.002 C 160.923 50.002 159.897 50.691 159.594 52.069 A 4.346 4.346 0 0 0 159.5 53.002 L 159.5 68.802 C 159.5 70.379 158.811 71.405 157.433 71.708 A 4.346 4.346 0 0 1 156.5 71.802 L 145.3 71.802 C 143.4 71.802 142.3 70.702 142.3 68.802 L 142.3 4.802 C 142.3 3.215 142.93 2.258 144.189 1.93 A 4.42 4.42 0 0 1 145.3 1.802 L 156.5 1.802 C 158.4 1.802 159.5 2.902 159.5 4.802 Z M 133.2 48.802 L 121.9 46.302 A 3.575 3.575 0 0 0 121.318 46.205 C 119.953 46.096 118.838 46.854 118.299 48.114 A 4.319 4.319 0 0 0 118 49.202 A 15.714 15.714 0 0 1 117.362 52.184 C 116.439 54.909 114.568 56.402 110.4 56.402 C 103 56.402 102.5 51.702 102.5 44.002 L 102.5 29.602 C 102.5 21.902 103 17.202 110.4 17.202 A 12.158 12.158 0 0 1 112.976 17.449 C 116.405 18.194 117.69 20.593 118.1 24.202 C 118.393 26.253 119.926 27.636 121.954 27.327 A 4.019 4.019 0 0 0 122.1 27.302 L 133.2 24.802 C 134.529 24.517 135.408 23.511 135.408 22.212 A 2.952 2.952 0 0 0 135.4 22.002 A 32.237 32.237 0 0 0 135.03 18.496 C 133.748 10.631 128.764 0.002 110.4 0.002 A 38.867 38.867 0 0 0 103.681 0.548 C 87.946 3.31 85.624 15.868 85.337 22.543 A 40.792 40.792 0 0 0 85.3 24.302 L 85.3 49.302 C 85.3 55.27 86.445 70.315 104.189 73.141 A 39.504 39.504 0 0 0 110.4 73.602 A 38.825 38.825 0 0 0 117.164 73.048 C 132.433 70.346 135.047 58.412 135.4 51.702 A 3.379 3.379 0 0 0 135.408 51.477 C 135.408 50.186 134.644 49.225 133.464 48.87 A 3.356 3.356 0 0 0 133.2 48.802 Z M 25 1.802 L 3.1 1.802 A 3.198 3.198 0 0 0 1.328 2.308 C 0.614 2.778 0.136 3.544 0.025 4.477 A 3.59 3.59 0 0 0 0 4.902 L 0 68.702 A 3.198 3.198 0 0 0 0.507 70.474 C 0.976 71.188 1.742 71.666 2.675 71.777 A 3.59 3.59 0 0 0 3.1 71.802 L 14.3 71.802 A 3.198 3.198 0 0 0 16.072 71.296 C 16.787 70.826 17.264 70.06 17.375 69.127 A 3.59 3.59 0 0 0 17.4 68.702 L 17.4 52.902 A 3.198 3.198 0 0 1 17.907 51.13 C 18.376 50.415 19.142 49.938 20.075 49.827 A 3.59 3.59 0 0 1 20.5 49.802 L 24.5 49.802 A 0.832 0.832 0 0 1 24.963 49.956 A 1.264 1.264 0 0 1 25.3 50.302 L 35.7 70.402 C 36.1 71.302 37 71.802 38 71.802 L 49.4 71.802 C 52.487 71.802 54.087 69.025 52.718 66.434 A 4.769 4.769 0 0 0 52.7 66.402 L 42.1 46.702 A 1.413 1.413 0 0 1 42.015 46.395 C 41.954 46.005 42.083 45.64 42.4 45.402 A 16.715 16.715 0 0 0 48.57 36.569 C 49.544 33.529 50 29.943 50 25.802 A 38.124 38.124 0 0 0 49.007 16.587 C 46.672 7.255 40.089 2.509 27.923 1.875 A 56.257 56.257 0 0 0 25 1.802 Z M 285.3 1.802 L 263.4 1.802 A 3.198 3.198 0 0 0 261.628 2.308 C 260.914 2.778 260.436 3.544 260.325 4.477 A 3.59 3.59 0 0 0 260.3 4.902 L 260.3 68.702 A 3.198 3.198 0 0 0 260.807 70.474 C 261.276 71.188 262.042 71.666 262.975 71.777 A 3.59 3.59 0 0 0 263.4 71.802 L 274.6 71.802 A 3.198 3.198 0 0 0 276.372 71.296 C 277.087 70.826 277.564 70.06 277.675 69.127 A 3.59 3.59 0 0 0 277.7 68.702 L 277.7 52.902 A 3.198 3.198 0 0 1 278.207 51.13 C 278.676 50.415 279.442 49.938 280.375 49.827 A 3.59 3.59 0 0 1 280.8 49.802 L 284.8 49.802 A 0.832 0.832 0 0 1 285.263 49.956 A 1.264 1.264 0 0 1 285.6 50.302 L 296 70.402 C 296.4 71.302 297.3 71.802 298.3 71.802 L 309.7 71.802 C 312.787 71.802 314.387 69.025 313.018 66.434 A 4.769 4.769 0 0 0 313 66.402 L 302.4 46.702 A 1.413 1.413 0 0 1 302.315 46.395 C 302.254 46.005 302.383 45.64 302.7 45.402 A 16.715 16.715 0 0 0 308.87 36.569 C 309.844 33.529 310.3 29.943 310.3 25.802 A 38.124 38.124 0 0 0 309.307 16.587 C 306.972 7.255 300.389 2.509 288.223 1.875 A 56.257 56.257 0 0 0 285.3 1.802 Z M 247.8 71.802 L 236.6 71.802 C 235.023 71.802 233.997 71.113 233.694 69.735 A 4.346 4.346 0 0 1 233.6 68.802 L 233.6 60.102 C 233.6 58.515 232.971 57.558 231.711 57.23 A 4.42 4.42 0 0 0 230.6 57.102 L 222 57.102 C 220.423 57.102 219.397 57.791 219.094 59.169 A 4.346 4.346 0 0 0 219 60.102 L 219 68.802 C 219 70.389 218.371 71.346 217.111 71.674 A 4.42 4.42 0 0 1 216 71.802 L 204.8 71.802 C 202.962 71.802 201.872 70.678 201.804 68.612 A 6.343 6.343 0 0 1 201.8 68.402 L 201.8 26.002 A 95.085 95.085 0 0 1 201.823 23.867 C 202.067 12.977 204.569 2.086 221.144 0.267 A 47.317 47.317 0 0 1 226.3 0.002 A 41.899 41.899 0 0 1 234.552 0.742 C 248.352 3.521 250.549 13.694 250.778 23.867 A 95.085 95.085 0 0 1 250.8 26.002 L 250.8 68.402 A 5.327 5.327 0 0 1 250.648 69.736 C 250.354 70.867 249.638 71.555 248.498 71.747 A 4.211 4.211 0 0 1 247.8 71.802 Z M 319.6 4.902 L 319.6 68.802 C 319.6 70.702 320.7 71.802 322.6 71.802 L 344.9 71.802 C 359.819 71.802 366.803 66.953 369.051 56.756 A 42.35 42.35 0 0 0 369.9 47.702 L 369.9 25.802 C 369.9 9.402 363.7 1.802 344.9 1.802 L 322.6 1.802 A 4.557 4.557 0 0 0 321.395 2.01 C 320.199 2.406 319.6 3.355 319.6 4.902 Z M 76.3 4.802 L 76.3 68.802 C 76.3 70.379 75.611 71.405 74.233 71.708 A 4.346 4.346 0 0 1 73.3 71.802 L 62.3 71.802 C 60.4 71.802 59.3 70.702 59.3 68.802 L 59.3 4.802 C 59.3 3.153 60.048 2.184 61.376 1.894 A 4.346 4.346 0 0 1 62.3 1.802 L 73.3 1.802 C 74.887 1.802 75.845 2.432 76.172 3.691 A 4.42 4.42 0 0 1 76.3 4.802 Z M 336.8 51.602 L 336.8 22.002 C 336.8 20.353 337.548 19.384 338.876 19.094 A 4.346 4.346 0 0 1 339.8 19.002 L 345.2 19.002 C 350 19.002 352.4 19.602 352.4 25.802 L 352.4 47.802 C 352.4 53.626 350.139 54.551 345.616 54.6 A 38.266 38.266 0 0 1 345.2 54.602 L 339.8 54.602 C 337.9 54.602 336.8 53.502 336.8 51.602 Z M 219 26.002 L 219 36.902 C 219 38.802 220.1 39.902 222 39.902 L 230.6 39.902 A 4.557 4.557 0 0 0 231.806 39.694 C 233.002 39.297 233.6 38.349 233.6 36.802 L 233.6 26.002 C 233.6 21.723 233.044 19.351 228.248 18.887 A 20.301 20.301 0 0 0 226.3 18.802 A 18.604 18.604 0 0 0 223.852 18.944 C 219.517 19.524 219 21.877 219 26.002 Z M 25.6 32.602 L 20.5 32.602 A 3.198 3.198 0 0 1 18.728 32.096 C 18.014 31.626 17.536 30.86 17.425 29.927 A 3.59 3.59 0 0 1 17.4 29.502 L 17.4 22.102 A 3.198 3.198 0 0 1 17.907 20.33 C 18.376 19.615 19.142 19.138 20.075 19.027 A 3.59 3.59 0 0 1 20.5 19.002 L 25.6 19.002 C 30.4 19.002 32.8 19.602 32.8 25.802 A 16.365 16.365 0 0 1 32.658 28.099 C 32.098 32.018 29.886 32.567 26.022 32.6 A 49.03 49.03 0 0 1 25.6 32.602 Z M 285.9 32.602 L 280.8 32.602 A 3.198 3.198 0 0 1 279.028 32.096 C 278.314 31.626 277.836 30.86 277.725 29.927 A 3.59 3.59 0 0 1 277.7 29.502 L 277.7 22.102 A 3.198 3.198 0 0 1 278.207 20.33 C 278.676 19.615 279.442 19.138 280.375 19.027 A 3.59 3.59 0 0 1 280.8 19.002 L 285.9 19.002 C 290.7 19.002 293.1 19.602 293.1 25.802 A 16.365 16.365 0 0 1 292.958 28.099 C 292.398 32.018 290.186 32.567 286.322 32.6 A 49.03 49.03 0 0 1 285.9 32.602 Z" vector-effect="non-scaling-stroke"/></g></svg>